<?xml version="1.0" encoding="utf-8"?>
<!-- Generator: Adobe Illustrator 25.0.0, SVG Export Plug-In . SVG Version: 6.00 Build 0)  -->
<svg version="1.1" id="Capa_1" xmlns="http://www.w3.org/2000/svg" xmlns:xlink="http://www.w3.org/1999/xlink" x="0px" y="0px"
	 viewBox="0 0 379 111" style="enable-background:new 0 0 379 111;" xml:space="preserve">
<style type="text/css">
	.st0{fill:#878787;}
	.st1{fill:#2188DB;}
	.st2{fill:#9B1FDD;}
	.st3{fill:#565656;}
	.st4{fill:#CCCCCC;}
	.st5{fill:none;stroke:#CCCCCC;stroke-miterlimit:10;}
	.st6{fill:#EDEDED;}
</style>
<g>
	<g>
		<g>
			<path class="st2" d="M64.33,48.18c0,11.82-8.07,19.06-20.38,19.06H31.41V28.84h12.54C56.27,28.84,64.33,36.3,64.33,48.18z
				 M43.95,62.1c9.06,0,13.92-5.19,13.92-13.92c0-8.78-4.86-14.2-13.92-14.2h-6.24V62.1H43.95z"/>
			<path class="st2" d="M83.67,67.74c-8.73,0-15.19-6.19-15.19-15.74c0-9.56,6.19-15.69,15.19-15.69c8.67,0,14.81,6.02,14.81,14.97
				c0,1.05-0.06,2.04-0.22,3.09H75c0.44,5.03,4.03,8.07,8.67,8.07c3.87,0,6.02-1.88,7.18-4.25h6.8
				C95.94,63.48,91.13,67.74,83.67,67.74z M75.05,49.28H91.9c-0.11-4.7-3.81-7.68-8.51-7.68C79.14,41.61,75.72,44.48,75.05,49.28z"
				/>
			<path class="st2" d="M115.71,67.74c-7.29,0-12.43-4.31-12.71-9.83h6.52c0.22,2.49,2.6,4.53,6.08,4.53c3.65,0,5.58-1.55,5.58-3.65
				c0-5.97-17.68-2.54-17.68-13.7c0-4.86,4.53-8.78,11.71-8.78c6.91,0,11.44,3.7,11.77,9.78h-6.3c-0.22-2.65-2.26-4.47-5.69-4.47
				c-3.37,0-5.14,1.38-5.14,3.43c0,6.13,17.18,2.71,17.51,13.7C127.37,63.87,122.9,67.74,115.71,67.74z"/>
			<path class="st2" d="M146.43,36.3c5.14,0,8.67,2.43,10.55,4.92V36.8h6.35v30.44h-6.35v-4.53c-1.93,2.6-5.58,5.03-10.66,5.03
				c-7.9,0-14.25-6.46-14.25-15.85S138.42,36.3,146.43,36.3z M147.76,41.77c-4.7,0-9.23,3.54-9.23,10.11
				c0,6.57,4.53,10.39,9.23,10.39c4.75,0,9.23-3.7,9.23-10.28C156.98,45.47,152.51,41.77,147.76,41.77z"/>
			<path class="st2" d="M188.53,36.3c8.01,0,14.31,6.19,14.31,15.58s-6.3,15.85-14.31,15.85c-5.03,0-8.62-2.54-10.61-4.92v18.89
				h-6.3V36.8h6.3v4.47C179.86,38.73,183.56,36.3,188.53,36.3z M187.15,41.77c-4.7,0-9.23,3.7-9.23,10.22
				c0,6.57,4.53,10.28,9.23,10.28c4.75,0,9.28-3.81,9.28-10.39C196.43,45.31,191.9,41.77,187.15,41.77z"/>
			<path class="st2" d="M222.18,67.74c-8.73,0-15.19-6.19-15.19-15.74c0-9.56,6.19-15.69,15.19-15.69c8.67,0,14.8,6.02,14.8,14.97
				c0,1.05-0.06,2.04-0.22,3.09H213.5c0.44,5.03,4.03,8.07,8.67,8.07c3.87,0,6.02-1.88,7.18-4.25h6.8
				C234.44,63.48,229.63,67.74,222.18,67.74z M213.56,49.28h16.85c-0.11-4.7-3.81-7.68-8.51-7.68
				C217.65,41.61,214.22,44.48,213.56,49.28z"/>
			<path class="st2" d="M255.43,36.3c4.97,0,8.67,2.32,10.55,4.92V36.8h6.35v30.94c0,8.29-5.36,14.53-14.86,14.53
				c-8.12,0-14.14-4.03-14.92-10.77h6.24c0.94,3.15,4.31,5.3,8.67,5.3c4.86,0,8.51-2.98,8.51-9.06v-5.08
				c-1.93,2.6-5.58,5.08-10.55,5.08c-8.01,0-14.36-6.46-14.36-15.85S247.42,36.3,255.43,36.3z M256.76,41.77
				c-4.7,0-9.23,3.54-9.23,10.11c0,6.57,4.53,10.39,9.23,10.39c4.75,0,9.23-3.7,9.23-10.28C265.98,45.47,261.51,41.77,256.76,41.77z
				"/>
		</g>
		<g>
			<g>
				<g>
					<path class="st1" d="M334.97,34.74c-5.91-8.56-15.29-13.47-25.71-13.47s-19.8,4.91-25.71,13.47
						c-5.88,8.52-7.24,19.3-3.64,28.82c0.96,2.6,2.49,5.13,4.54,7.5l22.75,26.73c0.51,0.6,1.27,0.95,2.06,0.95s1.55-0.35,2.06-0.95
						l22.75-26.72c2.06-2.38,3.58-4.91,4.54-7.49C342.21,54.03,340.85,43.25,334.97,34.74z M333.53,61.68
						c-0.74,1.99-1.94,3.96-3.57,5.85c0,0-0.01,0.01-0.01,0.01l-20.69,24.3l-20.7-24.32c-1.63-1.89-2.84-3.86-3.58-5.87
						c-2.98-7.88-1.85-16.79,3.02-23.84c4.89-7.07,12.64-11.13,21.26-11.13c8.62,0,16.37,4.06,21.26,11.13
						C335.39,44.87,336.52,53.78,333.53,61.68z"/>
				</g>
			</g>
			<g>
				<g>
					<g>
						<path class="st2" d="M309.25,37.34c-8.36,0-15.17,6.8-15.17,15.17s6.8,15.17,15.17,15.17s15.17-6.8,15.17-15.17
							C324.42,44.14,317.62,37.34,309.25,37.34z M309.25,62.26c-5.38,0-9.75-4.37-9.75-9.75s4.37-9.75,9.75-9.75
							c5.38,0,9.75,4.37,9.75,9.75S314.63,62.26,309.25,62.26z"/>
					</g>
				</g>
			</g>
		</g>
	</g>
</g>
</svg>
